<svg width="24" height="24" viewBox="0 0 24 24" fill="none" xmlns="http://www.w3.org/2000/svg">
<path d="M13.5758 11.4363L17.582 7.46542L18.4082 6.64653C18.5301 6.52573 18.5301 6.32943 18.4082 6.20863L17.5242 5.33244C17.4023 5.21164 17.2043 5.21164 17.0824 5.33244L12.25 10.1222L7.41758 5.33206C7.2957 5.21126 7.09766 5.21126 6.97578 5.33206L6.09141 6.20824C5.96953 6.32904 5.96953 6.52534 6.09141 6.64614L10.9242 11.4363L6.09141 16.2261C5.96953 16.3469 5.96953 16.5432 6.09141 16.664L6.97539 17.5402C7.09727 17.661 7.29531 17.661 7.41719 17.5402L12.25 12.7504L16.2563 16.7213L17.0824 17.5402C17.2043 17.661 17.4023 17.661 17.5242 17.5402L18.4082 16.664C18.5301 16.5432 18.5301 16.3469 18.4082 16.2261L13.5758 11.4363Z" fill="#2680C2"/>
</svg>
